<!--?xml version="1.0" standalone="no"?-->

<svg version="1.0" xmlns="http://www.w3.org/2000/svg" width="300.000000pt" height="288.000000pt" viewBox="0 0 300.000000 288.000000" preserveAspectRatio="xMidYMid meet">
<g transform="translate(0.000000,288.000000) scale(0.100000,-0.100000)" fill="#2B2B2B" stroke="none">
<path d="M915 2631 c-47 -21 -113 -86 -122 -119 -3 -13 7 -74 21 -135 15 -62
39 -159 52 -217 13 -58 36 -141 49 -185 63 -205 86 -388 89 -711 1 -106 2
-113 26 -132 44 -36 115 -55 190 -50 l70 4 0 -33 c0 -39 -29 -69 -81 -83 -32
-9 -43 -7 -85 17 -44 25 -56 27 -148 25 -100 -1 -101 -2 -127 -33 -45 -53 -98
-228 -99 -325 0 -86 49 -174 157 -280 l62 -62 -69 -7 c-69 -7 -88 -18 -51 -30
44 -14 408 -25 831 -25 527 0 847 13 868 33 11 12 -4 16 -100 28 -84 10 -267
14 -720 14 -335 0 -608 3 -608 7 0 3 9 28 20 54 l21 48 -21 93 -22 93 25 43
c14 23 31 61 38 85 8 30 19 44 33 46 107 20 140 31 174 56 68 49 85 82 90 175
l4 82 67 7 c36 3 107 6 157 6 95 0 114 8 114 45 0 20 49 63 146 128 47 31 98
43 133 30 22 -9 24 -16 28 -87 6 -119 58 -206 123 -206 22 0 154 72 165 90 3
5 38 31 77 57 69 46 208 190 208 216 0 6 7 25 15 40 20 39 38 144 30 183 -3
19 -19 44 -38 60 -28 23 -37 26 -84 21 -116 -12 -221 -86 -281 -197 -36 -68
-55 -73 -116 -26 -72 54 -164 60 -265 15 -35 -15 -46 -17 -53 -7 -10 14 -10 9
31 238 27 147 31 187 31 360 0 166 -12 355 -23 366 -1 2 -27 7 -57 13 -207 37
-401 78 -500 104 -30 8 -87 18 -127 22 -50 5 -90 16 -128 36 -67 35 -155 39
-220 10z m216 -59 c44 -27 33 51 111 -776 18 -186 24 -230 31 -200 8 41 -3
218 -28 414 -7 63 -19 176 -25 250 -6 74 -18 160 -26 191 -8 30 -14 65 -14 78
0 20 3 21 53 16 55 -7 197 -37 284 -61 29 -8 94 -21 145 -29 126 -20 240 -43
247 -51 3 -3 6 -144 6 -312 0 -260 -3 -320 -18 -392 -10 -47 -20 -86 -22 -88
-5 -6 -45 18 -67 40 -16 16 -27 18 -56 13 -21 -4 -58 -8 -84 -10 -55 -3 -70
-13 -93 -61 -11 -24 -15 -47 -10 -74 6 -36 5 -38 -27 -48 -66 -20 -84 -21
-152 -7 -49 10 -78 23 -98 42 -27 25 -28 26 -28 6 0 -29 41 -60 103 -78 68
-20 126 -19 179 4 60 25 70 40 56 78 -14 36 3 87 33 104 23 12 24 2 2 -23 -24
-27 2 -23 40 6 35 26 114 42 95 19 -8 -10 -4 -13 19 -13 32 0 73 -24 73 -43 0
-7 -12 -20 -27 -29 l-28 -17 33 -1 c17 0 32 -4 32 -9 0 -5 2 -15 5 -23 2 -7
-2 -22 -11 -33 -13 -17 -16 -18 -25 -5 -9 13 -11 13 -16 1 -14 -35 -54 -62
-86 -60 -21 2 -44 -4 -63 -18 -67 -47 -126 -66 -225 -71 -89 -4 -101 -2 -157
23 -33 15 -71 38 -83 51 -22 24 -49 32 -49 15 0 -17 40 -59 69 -70 32 -14 36
-25 46 -123 l7 -68 -78 0 c-55 0 -90 5 -114 18 -33 16 -35 20 -38 74 -4 67 1
70 115 71 50 0 71 3 64 10 -5 5 -45 8 -95 5 -72 -4 -84 -2 -84 11 0 9 -3 72
-6 141 -11 216 -28 317 -85 520 -12 41 -26 95 -32 120 -5 25 -22 92 -36 149
-24 100 -25 105 -7 118 9 7 32 16 51 19 18 3 36 10 39 15 3 5 22 10 42 10 29
2 31 3 10 6 -24 4 -107 -14 -150 -32 -13 -5 -18 -3 -18 8 0 9 25 25 65 41 53
21 82 26 152 26 47 0 83 3 79 7 -9 9 -168 12 -181 3 -5 -3 -30 -12 -55 -19
-25 -7 -50 -17 -57 -22 -8 -7 -15 1 -23 26 -14 42 -1 68 52 108 42 32 59 36
138 34 47 -2 75 -8 101 -25z m1489 -916 c0 -2 -11 -6 -25 -8 -13 -3 -22 -1
-19 3 5 9 44 13 44 5z m75 -26 c24 -9 26 -14 21 -52 -3 -24 -5 -44 -5 -45 -1
0 -19 8 -42 18 -22 11 -46 18 -52 16 -6 -2 13 -16 43 -31 39 -19 46 -25 25
-21 -43 9 -72 13 -57 8 6 -3 12 -8 12 -13 0 -5 14 -11 30 -15 33 -7 36 -15 18
-48 -7 -12 -14 -24 -15 -26 -4 -6 -103 33 -103 41 0 4 -4 8 -10 8 -24 0 -6
-18 45 -44 30 -15 55 -32 55 -37 0 -13 -7 -12 -62 16 -57 29 -65 30 -49 11 7
-8 23 -17 38 -21 25 -6 53 -27 53 -40 0 -3 -10 -4 -22 -1 -13 3 -17 3 -10 0
20 -9 14 -26 -8 -19 -19 6 -30 -10 -10 -17 5 -1 1 -14 -9 -27 -18 -23 -19 -23
-50 -8 -17 9 -33 11 -37 6 -3 -5 1 -9 8 -9 7 0 20 -5 28 -10 13 -9 13 -11 0
-19 -10 -7 -17 -6 -23 2 -5 8 -7 6 -5 -7 2 -10 -8 -27 -23 -38 -25 -19 -26
-19 -63 3 -46 27 -58 19 -16 -11 24 -17 29 -25 20 -34 -9 -8 -14 -8 -17 2 -3
6 -9 12 -15 12 -6 0 -5 -7 3 -16 17 -21 -5 -36 -46 -30 -16 3 -24 2 -17 -1 13
-5 17 -33 4 -33 -4 0 -18 7 -30 16 -26 18 -30 7 -4 -12 16 -13 16 -13 0 -14
-10 0 -18 -4 -18 -10 0 -5 -11 -10 -25 -10 -18 0 -26 7 -31 26 -10 39 6 61 81
113 80 54 110 94 154 206 54 136 104 201 163 215 46 11 44 11 73 0z m-212 -32
c-11 -13 -29 -43 -41 -68 -11 -25 -34 -76 -52 -113 -31 -67 -93 -140 -154
-182 -16 -11 -38 -29 -48 -39 -22 -24 -24 -22 -31 39 l-7 50 20 -25 c26 -34
55 -18 55 31 0 29 -3 34 -22 33 -13 0 -23 2 -23 6 0 12 25 38 55 56 l30 19
-18 -27 c-20 -32 -17 -34 21 -14 38 20 74 62 107 124 16 29 48 71 72 92 46 43
69 54 36 18z m25 -30 c-19 -25 -40 -60 -47 -79 -7 -19 -17 -42 -22 -52 -5 -9
-18 -41 -29 -70 -21 -56 -58 -97 -125 -140 -59 -38 -70 -49 -88 -82 -14 -26
-16 -27 -17 -9 0 24 38 66 90 99 61 38 100 87 142 175 22 47 47 101 57 120 18
38 61 93 68 86 2 -2 -11 -24 -29 -48z m-318 -111 c19 -11 37 -22 39 -23 2 -2
-18 -23 -45 -48 -37 -33 -53 -42 -66 -35 -48 25 -154 -7 -236 -72 -33 -25 -37
-15 -22 56 9 43 18 60 43 79 49 36 95 57 146 66 58 10 96 4 141 -23z m-356
-84 c-3 -16 -18 -67 -32 -115 l-26 -88 -56 0 c-30 0 -118 -7 -195 -15 -77 -8
-159 -15 -181 -15 l-41 0 -6 68 c-3 37 -4 68 -2 70 1 1 34 -3 72 -9 52 -8 87
-9 132 -1 61 11 183 61 195 81 4 6 24 11 45 11 24 0 48 8 62 20 33 27 40 25
33 -7z m372 -100 c-6 -14 -9 -15 -16 -4 -11 19 -1 46 13 32 5 -5 7 -18 3 -28z
m-758 -237 c-10 -124 -75 -183 -230 -207 -66 -10 -73 -10 -85 7 -8 11 -13 35
-11 54 3 35 4 35 60 42 103 13 148 51 148 125 l0 43 61 0 62 0 -5 -64z m-368
-62 c31 -6 38 -22 19 -41 -12 -12 -14 -64 -4 -109 7 -34 -21 -99 -77 -182
l-29 -42 28 -53 c26 -47 32 -52 61 -51 27 2 33 -2 38 -23 4 -14 3 -42 -2 -62
-7 -29 -14 -37 -36 -39 -40 -5 -85 23 -107 66 -11 21 -33 48 -49 61 -21 16
-33 35 -37 61 -4 21 -13 46 -20 57 -29 38 -5 209 43 302 36 71 57 77 172 55z
m-180 2 c0 -2 -13 -32 -29 -67 -19 -42 -33 -97 -42 -161 -12 -92 -11 -99 9
-146 12 -28 22 -57 22 -66 0 -8 17 -33 38 -55 20 -22 49 -58 64 -80 21 -31 38
-43 75 -55 32 -9 43 -16 32 -20 -39 -16 -121 41 -197 137 -79 100 -85 117 -79
221 6 118 66 296 98 296 5 0 9 -2 9 -4z m250 -206 c0 -23 -32 -90 -64 -133
-14 -19 -17 -30 -10 -35 19 -12 26 -50 14 -72 -14 -26 -23 -20 -49 30 l-21 40
40 61 c22 34 45 77 52 95 13 37 38 46 38 14z" id="node1" class="node"></path>
<path d="M1088 2423 c7 -3 16 -2 19 1 4 3 -2 6 -13 5 -11 0 -14 -3 -6 -6z" id="node2" class="node"></path>
<path d="M1637 2406 c-3 -8 -3 -17 0 -20 10 -10 93 -7 93 4 0 26 -84 41 -93
16z" id="node3" class="node"></path>
<path d="M1437 2392 c-22 -24 -22 -46 -1 -38 9 3 27 9 40 12 27 7 32 29 8 38
-24 9 -29 8 -47 -12z" id="node4" class="node"></path>
<path d="M1685 2320 c-4 -12 -20 -26 -36 -32 -16 -6 -34 -19 -40 -29 -10 -19
-10 -19 -36 1 -14 11 -35 20 -46 20 -11 0 -35 9 -53 21 -26 15 -34 17 -34 7 0
-8 5 -19 11 -25 17 -17 -5 -25 -37 -13 -34 13 -43 6 -15 -12 38 -24 24 -43
-29 -39 -8 0 -5 -4 8 -11 17 -9 22 -20 22 -50 0 -80 50 -146 117 -155 34 -4
43 -2 61 21 11 15 23 32 26 39 3 8 8 7 16 -5 14 -23 72 -33 100 -18 31 17 50
70 50 139 0 47 4 62 17 70 10 5 14 13 9 18 -5 4 -11 2 -13 -4 -6 -16 -29 -17
-38 -3 -4 6 -1 17 5 25 7 8 9 23 6 32 -6 15 -8 14 -19 -6 -14 -28 -32 -29 -32
-2 0 29 -12 35 -20 11z m-134 -70 c18 0 49 -65 49 -103 0 -46 -32 -113 -58
-121 -22 -7 -50 1 -74 22 -22 18 -23 32 -4 32 17 0 28 27 21 51 -4 12 -16 19
-31 19 -20 0 -24 5 -24 28 0 41 62 88 98 76 8 -2 18 -4 23 -4z m174 -6 c16
-12 20 -26 19 -72 -1 -84 -16 -112 -58 -112 -18 0 -39 7 -47 16 -11 14 -10 18
10 33 30 23 26 65 -7 69 -31 5 -38 27 -18 57 19 29 69 34 101 9z" id="node5" class="node"></path>
<path d="M1380 2001 c-5 -11 -6 -22 -1 -25 10 -7 24 -99 22 -146 -3 -52 30
-90 78 -90 36 0 81 22 81 41 0 5 -13 3 -30 -6 -31 -16 -69 -19 -85 -7 -12 8
-37 62 -29 62 3 0 14 -10 24 -22 13 -16 29 -23 57 -23 43 0 81 25 119 76 13
18 37 40 53 50 31 19 68 66 58 75 -3 3 -13 -3 -23 -13 -20 -20 -96 -25 -140
-10 -13 5 -33 1 -50 -8 -16 -8 -34 -15 -40 -15 -16 0 -54 44 -54 63 0 23 -27
21 -40 -2z m201 -61 c12 -7 25 -7 37 -1 10 5 24 6 31 1 23 -14 -22 -30 -83
-30 -58 0 -78 12 -49 29 23 13 40 14 64 1z m-79 -97 c27 -24 22 -35 -13 -31
-19 2 -38 12 -47 26 -14 21 -13 22 13 22 16 0 37 -7 47 -17z" id="node6" class="node"></path>
<path d="M1078 1343 c7 -3 16 -2 19 1 4 3 -2 6 -13 5 -11 0 -14 -3 -6 -6z" id="node7" class="node"></path>
<path d="M2563 1373 c9 -9 20 -13 24 -9 4 4 1 11 -7 16 -25 16 -35 11 -17 -7z" id="node8" class="node"></path>
<path d="M990 932 c-45 -36 3 -98 54 -70 23 13 21 65 -3 78 -25 13 -25 13 -51
-8z m48 -35 c2 -11 -3 -17 -17 -17 -23 0 -35 15 -26 31 10 15 39 6 43 -14z" id="node9" class="node"></path>
<path d="M393 2487 c136 -6 220 -5 245 1 27 7 -28 10 -208 9 l-245 0 208 -10z" id="node10" class="node"></path>
<path d="M415 2450 c8 -14 355 -14 355 0 0 6 -67 10 -181 10 -117 0 -178 -3
-174 -10z" id="node11" class="node"></path>
<path d="M680 2140 c0 -6 35 -10 85 -10 50 0 85 4 85 10 0 6 -35 10 -85 10
-50 0 -85 -4 -85 -10z" id="node12" class="node"></path>
<path d="M615 2090 c-44 -5 -18 -7 93 -8 100 -1 151 1 147 8 -7 11 -142 11
-240 0z" id="node13" class="node"></path>
<path d="M355 1780 c29 -12 595 -12 595 0 0 6 -109 10 -307 9 -181 0 -300 -4
-288 -9z" id="node14" class="node"></path>
<path d="M275 1710 c-12 -5 124 -9 327 -9 221 -1 349 3 353 9 8 13 -651 13
-680 0z" id="node15" class="node"></path>
<path d="M765 1309 c58 -11 215 -11 215 1 0 6 -48 10 -127 9 -96 -1 -118 -3
-88 -10z" id="node16" class="node"></path>
<path d="M805 1250 c3 -5 44 -10 91 -10 49 0 84 4 84 10 0 6 -37 10 -91 10
-57 0 -88 -4 -84 -10z" id="node17" class="node"></path>
<path d="M572 753 c32 -2 84 -2 116 0 31 2 5 3 -58 3 -63 0 -89 -1 -58 -3z" id="node18" class="node"></path>
</g>
<g transform="translate(0.000000,288.000000) scale(0.100000,-0.100000)" fill="#FFFFFF" stroke="none">

<path d="M945 2593 c-28 -7 -82 -50 -101 -78 -13 -20 -14 -30 -4 -60 8 -25 15
-33 23 -26 7 5 32 15 57 22 25 7 50 16 55 19 13 9 172 6 181 -3 4 -4 -32 -7
-79 -7 -70 0 -99 -5 -152 -26 -40 -16 -65 -32 -65 -41 0 -11 5 -13 18 -8 43
18 126 36 150 32 21 -3 19 -4 -10 -6 -20 0 -39 -5 -42 -10 -3 -5 -21 -12 -39
-15 -19 -3 -42 -12 -51 -19 -18 -13 -17 -18 7 -118 14 -57 31 -124 36 -149 6
-25 20 -79 32 -120 57 -203 74 -304 85 -520 3 -69 6 -132 6 -141 0 -13 12 -15
84 -11 50 3 90 0 95 -5 7 -7 -14 -10 -64 -10 -114 -1 -119 -4 -115 -71 3 -54
5 -58 38 -74 24 -13 59 -18 114 -18 l78 0 -7 68 c-10 98 -14 109 -46 123 -29
11 -69 53 -69 70 0 17 27 9 49 -15 12 -13 50 -36 83 -51 56 -25 68 -27 157
-23 99 5 158 24 225 71 19 14 42 20 63 18 32 -2 72 25 86 60 5 12 7 12 16 -1
9 -13 12 -12 25 5 9 11 13 26 11 33 -3 8 -5 18 -5 23 0 5 -15 9 -32 9 l-33 1
28 17 c15 9 27 22 27 29 0 19 -41 43 -73 43 -23 0 -27 3 -19 13 19 23 -60 7
-95 -19 -38 -29 -64 -33 -40 -6 22 25 21 35 -2 23 -30 -17 -47 -68 -33 -104
14 -38 4 -53 -56 -78 -53 -23 -111 -24 -179 -4 -62 18 -103 49 -103 78 0 20 1
19 28 -6 20 -19 49 -32 98 -42 68 -14 86 -13 152 7 32 10 33 12 27 48 -5 27
-1 50 10 74 23 48 38 58 93 61 26 2 63 6 84 10 29 5 40 3 56 -13 22 -22 62
-46 67 -40 2 2 12 41 22 88 15 72 18 132 18 392 0 168 -3 309 -6 312 -7 8
-121 31 -247 51 -51 8 -116 21 -145 29 -87 24 -229 54 -284 61 -50 5 -53 4
-53 -16 0 -13 6 -48 14 -78 8 -31 20 -117 26 -191 6 -74 18 -187 25 -250 25
-196 36 -373 28 -414 -7 -30 -13 14 -31 200 -78 827 -67 749 -111 776 -36 23
-138 34 -186 21z m162 -169 c-3 -3 -12 -4 -19 -1 -8 3 -5 6 6 6 11 1 17 -2 13
-5z m604 -14 c32 -18 22 -30 -24 -30 -48 0 -58 5 -50 26 6 16 46 18 74 4z
m-227 -6 c24 -9 19 -31 -8 -38 -13 -3 -31 -9 -40 -12 -21 -8 -21 14 1 38 18
20 23 21 47 12z m221 -95 c0 -27 18 -26 32 2 11 20 13 21 19 6 3 -9 1 -24 -6
-32 -6 -8 -9 -19 -5 -25 9 -14 32 -13 38 3 2 6 8 8 13 4 5 -5 1 -13 -9 -18
-13 -8 -17 -23 -17 -70 0 -69 -19 -122 -50 -139 -28 -15 -86 -5 -100 18 -8 12
-13 13 -16 5 -3 -7 -15 -24 -26 -39 -18 -23 -27 -25 -61 -21 -67 9 -117 75
-117 155 0 30 -5 41 -22 50 -13 7 -16 11 -8 11 53 -4 67 15 29 39 -28 18 -19
25 15 12 32 -12 54 -4 37 13 -6 6 -11 17 -11 25 0 10 8 8 34 -7 18 -12 42 -21
53 -21 11 0 32 -9 46 -20 26 -20 26 -20 36 -1 6 10 24 23 40 29 16 6 32 20 36
32 8 24 20 18 20 -11z m-285 -306 c0 -19 38 -63 54 -63 6 0 24 7 40 15 17 9
37 13 50 8 44 -15 120 -10 140 10 10 10 20 16 23 13 10 -9 -27 -56 -58 -75
-16 -10 -40 -32 -53 -50 -38 -51 -76 -76 -119 -76 -28 0 -44 7 -57 23 -10 12
-21 22 -24 22 -8 0 17 -54 29 -62 16 -12 54 -9 85 7 17 9 30 11 30 6 0 -19
-45 -41 -81 -41 -48 0 -81 38 -78 90 2 47 -12 139 -22 146 -13 8 9 44 26 44 8
0 15 -8 15 -17z m-323 -659 c-3 -3 -12 -4 -19 -1 -8 3 -5 6 6 6 11 1 17 -2 13
-5z" id="node20" class="node"></path>
<path d="M1490 2249 c-39 -16 -60 -40 -60 -71 0 -23 4 -28 24 -28 15 0 27 -7
31 -19 7 -24 -4 -51 -21 -51 -19 0 -18 -14 4 -32 24 -21 52 -29 74 -22 26 8
58 75 58 121 0 38 -31 103 -49 103 -5 0 -15 2 -23 4 -7 3 -24 0 -38 -5z" id="node21" class="node"></path>
<path d="M1624 2235 c-20 -30 -13 -52 18 -57 33 -4 37 -46 7 -69 -20 -15 -21
-19 -10 -33 8 -9 29 -16 47 -16 42 0 57 28 58 112 1 46 -3 60 -19 72 -32 25
-82 20 -101 -9z" id="node22" class="node"></path>
<path d="M1517 1939 c-29 -17 -9 -29 49 -29 61 0 106 16 83 30 -7 5 -21 4 -31
-1 -12 -6 -25 -6 -37 1 -24 13 -41 12 -64 -1z" id="node23" class="node"></path>
<path d="M1442 1838 c15 -23 78 -39 78 -20 0 18 -37 42 -65 42 -26 0 -27 -1
-13 -22z" id="node24" class="node"></path>
<path d="M2576 1651 c-3 -4 6 -6 19 -3 14 2 25 6 25 8 0 8 -39 4 -44 -5z" id="node25" class="node"></path>
<path d="M2622 1630 c-59 -14 -109 -79 -163 -215 -44 -112 -74 -152 -154 -206
-75 -52 -91 -74 -81 -113 5 -19 13 -26 31 -26 14 0 25 5 25 10 0 6 8 10 18 10
16 1 16 1 0 14 -26 19 -22 30 4 12 12 -9 26 -16 30 -16 13 0 9 28 -4 33 -7 3
1 4 17 1 41 -6 63 9 46 30 -8 9 -9 16 -3 16 6 0 12 -6 15 -12 3 -10 8 -10 17
-2 9 9 4 17 -20 34 -42 30 -30 38 16 11 37 -22 38 -22 63 -3 15 11 25 28 23
38 -2 13 0 15 5 7 6 -8 13 -9 23 -2 13 8 13 10 0 19 -8 5 -21 10 -28 10 -7 0
-11 4 -8 9 4 5 20 3 37 -6 31 -15 32 -15 50 8 10 13 14 26 9 27 -20 7 -9 23
10 17 22 -7 28 10 8 19 -7 3 -3 3 10 0 12 -3 22 -2 22 1 0 13 -28 34 -53 40
-15 4 -31 13 -38 21 -16 19 -8 18 49 -11 55 -28 62 -29 62 -16 0 5 -25 22 -55
37 -51 26 -69 44 -45 44 6 0 10 -4 10 -8 0 -8 99 -47 103 -41 1 2 8 14 15 26
18 33 15 41 -18 48 -16 4 -30 10 -30 15 0 5 -6 10 -12 13 -15 5 14 1 57 -8 21
-4 14 2 -25 21 -30 15 -49 29 -43 31 6 2 30 -5 52 -16 23 -10 41 -18 42 -18 0
1 2 21 5 45 5 38 3 43 -21 52 -29 11 -27 11 -73 0z m-42 -250 c8 -5 11 -12 7
-16 -4 -4 -15 0 -24 9 -18 18 -8 23 17 7z" id="node26" class="node"></path>
<path d="M2447 1580 c-24 -21 -56 -63 -72 -92 -33 -62 -69 -104 -107 -124 -38
-20 -41 -18 -21 14 l18 27 -30 -19 c-30 -18 -55 -44 -55 -56 0 -4 10 -6 23 -6
19 1 22 -4 22 -33 0 -49 -29 -65 -55 -31 l-20 25 7 -50 c7 -61 9 -63 31 -39
10 10 32 28 48 39 61 42 123 115 154 182 18 37 41 88 52 113 12 25 30 55 41
68 33 36 10 25 -36 -18z" id="node27" class="node"></path>
<path d="M2509 1592 c-13 -15 -31 -43 -40 -62 -10 -19 -35 -73 -57 -120 -42
-88 -81 -137 -142 -175 -52 -33 -90 -75 -90 -99 1 -18 3 -17 17 9 18 33 29 44
88 82 67 43 104 84 125 140 11 29 24 61 29 70 5 10 15 33 22 52 7 19 28 54 47
79 37 49 38 69 1 24z" id="node28" class="node"></path>
<path d="M2049 1480 c-51 -9 -97 -30 -146 -66 -25 -19 -34 -36 -43 -79 -15
-71 -11 -81 22 -56 82 65 188 97 236 72 13 -7 29 2 66 35 27 25 47 46 45 48
-57 43 -113 57 -180 46z" id="node29" class="node"></path>
<path d="M1801 1380 c-14 -12 -38 -20 -62 -20 -21 0 -41 -5 -45 -11 -12 -20
-134 -70 -195 -81 -45 -8 -80 -7 -132 1 -38 6 -71 10 -72 9 -2 -2 -1 -33 2
-70 l6 -68 41 0 c22 0 104 7 181 15 77 8 165 15 195 15 l56 0 26 88 c45 153
45 160 -1 122z" id="node30" class="node"></path>
<path d="M2187 1297 c-3 -7 -1 -20 3 -28 7 -11 10 -10 16 4 4 10 2 23 -3 28
-7 7 -12 6 -16 -4z" id="node31" class="node"></path>
<path d="M1330 1057 c0 -74 -45 -112 -148 -125 -56 -7 -57 -7 -60 -42 -2 -19
3 -43 11 -54 12 -17 19 -17 85 -7 155 24 220 83 230 207 l5 64 -62 0 -61 0 0
-43z" id="node32" class="node"></path>
<path d="M966 981 c-39 -8 -81 -89 -101 -195 -18 -96 -19 -145 0 -169 7 -11
16 -36 20 -57 4 -26 16 -45 37 -61 16 -13 38 -40 49 -61 22 -43 67 -71 107
-66 22 2 29 10 36 39 5 20 6 48 2 62 -5 21 -11 25 -38 23 -29 -1 -35 4 -61 51
l-28 53 29 42 c56 83 84 148 77 182 -10 45 -8 97 4 109 19 19 12 35 -19 41
-62 12 -86 14 -114 7z m75 -41 c24 -13 26 -65 3 -78 -51 -28 -99 34 -54 70 26
21 26 21 51 8z" id="node33" class="node"></path>
<path d="M995 911 c-9 -16 3 -31 26 -31 14 0 19 6 17 17 -4 20 -33 29 -43 14z" id="node34" class="node"></path>
<path d="M868 958 c-35 -54 -70 -184 -75 -274 -6 -104 0 -121 79 -221 76 -96
158 -153 197 -137 11 4 0 11 -32 20 -37 12 -54 24 -75 55 -15 22 -44 58 -64
80 -21 22 -38 47 -38 55 0 9 -10 38 -22 66 -20 47 -21 54 -9 146 9 64 23 119
42 161 16 35 29 65 29 67 0 12 -20 1 -32 -18z" id="node35" class="node"></path>
<path d="M1112 756 c-7 -18 -30 -61 -52 -95 l-40 -61 21 -40 c26 -50 35 -56
49 -30 12 22 5 60 -14 72 -7 5 -4 16 10 35 32 43 64 110 64 133 0 32 -25 23
-38 -14z" id="node36" class="node"></path>
</g>
</svg>